# xmcd
#
# Track frame offsets: 
#        150
#        17889
#        32010
#        32820
#        44835
#        72726
#        83040
#        84390
#        95568
#        99159
#        110553
#        112848
#        122406
#        123324
#        134394
#        134826
#        144141
#        144546
#        154779
#        156021
#        167145
#        167901
#        176460
#        177216
#        188853
#        200787
#        201219
#        210507
#        221739
#        230973
#        232269
#        245202
#
# Disc length: 3608 seconds
#
# Revision: 0
# Processed by: cddbd v1.5.2PL0 Copyright (c) Steve Scherf et al.
# Submitted via: ExactAudioCopy v0.95b3
#
DISCID=e00e1620
DTITLE=The Beatles  - The Days In Their Life - Vol.06  FLAC
DYEAR=1900
DGENRE=
TTITLE0=Narrative
TTITLE1=Ticket To Ride
TTITLE2=Narrative
TTITLE3=Yes It Is
TTITLE4=Narrative
TTITLE5=Help!
TTITLE6=Narrative
TTITLE7=I'm Down
TTITLE8=Narrative
TTITLE9=The Night Before
TTITLE10=Narrative
TTITLE11=You've Got To Hide Your Love Away
TTITLE12=Narrative
TTITLE13=I Need You
TTITLE14=Narrative
TTITLE15=Another Girl
TTITLE16=Narrative
TTITLE17=You're Going To Lose That Girl
TTITLE18=Narrative
TTITLE19=Act Naturally
TTITLE20=Narrative
TTITLE21=It's Only Love
TTITLE22=Narrative
TTITLE23=You Like Me Too Much
TTITLE24=NarrativeTell Me What You See
TTITLE25=Narrative
TTITLE26=I've Just Seen A Face
TTITLE27=Narrative
TTITLE28=Yesterday
TTITLE29=Narrative
TTITLE30=Dizzy Miss Lizzy
TTITLE31=Narrative
EXTD=
EXTT0=
EXTT1=
EXTT2=
EXTT3=
EXTT4=
EXTT5=
EXTT6=
EXTT7=
EXTT8=
EXTT9=
EXTT10=
EXTT11=
EXTT12=
EXTT13=
EXTT14=
EXTT15=
EXTT16=
EXTT17=
EXTT18=
EXTT19=
EXTT20=
EXTT21=
EXTT22=
EXTT23=
EXTT24=
EXTT25=
EXTT26=
EXTT27=
EXTT28=
EXTT29=
EXTT30=
EXTT31=
PLAYORDER=
